PathFileType	4	(X/Y/Z)	Patient4_TMGait_0pt5_01_left_08.trc.trc
DataRate	CameraRate	NumFrames	NumMarkers	Units	OrigDataRate	OrigDataStartFrame	OrigNumFrames
75.268817204301	75.268817204301	6	33	mm	75.268817204301	18	       141
Frame#	Time	L.ASIS			Sacral			L.Shoulder			Chest			R.Shoulder			Neck			R.ASIS			R.Thigh.Superior			R.Thigh.Lateral			R.Thigh.Inferior			R.Patella			L.Thigh.Superior			L.Thigh.Lateral			L.Thigh.Inferior			L.Patella			L.Shank.Superior			L.Shank.Lateral			L.Shank.Inferior			R.Shank.Superior			R.Shank.Lateral			R.Shank.Inferior			R.Heel			R.Midfoot.Superior			R.Midfoot.Lateral			R.Toe			L.Heel			L.Midfoot.Lateral			L.Midfoot.Superior			L.Toe			L.Elbow			L.Wrist			R.Elbow			R.Wrist			
		X1	Y1	Z1	X2	Y2	Z2	X3	Y3	Z3	X4	Y4	Z4	X5	Y5	Z5	X6	Y6	Z6	X7	Y7	Z7	X8	Y8	Z8	X9	Y9	Z9	X10	Y10	Z10	X11	Y11	Z11	X12	Y12	Z12	X13	Y13	Z13	X14	Y14	Z14	X15	Y15	Z15	X16	Y16	Z16	X17	Y17	Z17	X18	Y18	Z18	X19	Y19	Z19	X20	Y20	Z20	X21	Y21	Z21	X22	Y22	Z22	X23	Y23	Z23	X24	Y24	Z24	X25	Y25	Z25	X26	Y26	Z26	X27	Y27	Z27	X28	Y28	Z28	X29	Y29	Z29	X30	Y30	Z30	X31	Y31	Z31	X32	Y32	Z32	X33	Y33	Z33	

18	10.965857142857	696.384269760954	969.398274137428	346.894724970220	502.935410293249	1008.277393794553	528.990405921453	669.238624353467	1451.988296350844	370.651711186248	787.122116818265	1359.262702150955	508.565627146535	729.054998227900	1416.129903680699	698.975275564942	695.091305450170	1495.146594761391	525.192615906564	738.499649450374	936.902084607895	618.387990543081	752.056909833935	731.352836180025	583.283732825270	663.433233367485	629.242066808069	648.316720958981	727.057237077056	570.281101196407	563.775527638742	715.276207207569	480.840407687669	568.509783487081	768.873800991880	778.851202192404	361.314944375159	709.385346567009	652.607007980741	289.343972804036	814.175020029392	589.351965856003	343.664912833662	841.460489586814	527.705259920056	340.043265362674	829.668067373054	459.146600667040	330.063139823408	772.631435232778	325.715282710323	277.828484355712	868.221398095958	232.809754155389	329.341794038197	677.233990429550	395.775560903522	574.558441078491	595.848031869651	300.907545753928	638.120781170221	621.592813572442	203.103993563482	571.260448367643	466.148573335055	46.828478843136	546.467703629251	641.541161114445	97.098147341457	573.694447357473	553.505880838367	37.255246473422	615.286472066394	760.968574116746	38.189620839276	593.792763234681	796.384954393637	46.004672120760	363.578958466845	872.019039219621	56.879260416886	285.465211380983	936.606075419527	139.357987336680	307.098447144288	1073.021536602818	119.124269613784	285.786635316178	540.581591133612	1137.333874131619	224.234162551480	630.695573268758	890.596478726681	197.437007021079	799.625164003336	1071.251320092894	787.484084011375	1029.860969154784	970.755464271618	732.139402866232	
19	10.979142857143	695.905006322886	968.506460689757	345.213784064952	502.296686827281	1007.316079921431	527.169240951428	667.877404393777	1451.026346749501	368.510377303131	785.811609314072	1358.650660890483	506.634509433543	727.529217563811	1415.654788264041	696.949952376202	693.583479357720	1494.376504468550	523.070404970500	737.784844785854	936.080101422144	616.844313965021	749.586149829683	730.132813086801	581.490682564835	660.232719197091	628.650733222860	647.008204681043	722.905653552166	569.096296101107	562.338650249372	710.360909568914	479.812813658547	567.078119719229	769.092824642516	778.542250190832	360.194744301769	710.050768073402	651.699556593927	288.609272153859	814.759576271901	588.884551756878	343.037249443087	842.042232224530	527.139836004803	339.804870733007	830.141005133295	458.248228996098	330.158682115775	772.984658416201	324.966169122166	278.191649964876	868.055380798134	232.037032976947	330.236162240540	671.978511548607	394.884210613778	573.368147321786	590.423535390097	300.515944056310	637.441981835836	615.362116219354	202.534222524893	570.561104136536	459.408909880909	46.436130674419	546.358909508785	634.684516589598	96.943423471771	573.467580867949	546.751915088530	37.110966982119	615.216652545274	754.218085291757	38.270283185481	593.777343081632	795.272059967725	46.424300637709	364.777409904497	871.404864941647	55.977472413152	287.111532249576	936.700526822081	137.672146057680	308.644654845811	1072.850926620238	115.752529145584	288.384235019055	539.464078111750	1136.204743571865	222.398565664937	628.350305808641	889.003975776056	195.266296182029	795.729327523437	1070.382966841852	786.265314890471	1024.586133499209	966.159764469789	731.805522032579	
20	10.992428571429	695.712861702926	967.423877732472	343.458648188595	501.873096550976	1006.191729089671	525.213484583458	666.441992003915	1449.924878721581	366.069943127551	784.466070020792	1358.027864675939	504.458994451417	725.893826884063	1415.197035138086	694.650489590182	691.946687291027	1493.532546785927	520.641034906161	737.273991304665	935.246974490101	615.241749106790	747.353197040081	728.843323786189	579.855377586085	657.114725592911	628.036851741818	645.754837193586	718.898269573210	567.849420970415	561.037742533265	705.523678266952	478.730249358439	565.718376139901	769.631675765500	778.013905599569	359.169285006203	711.041222499360	650.581636101448	287.963181776880	815.595292204732	588.215486450698	342.578394221060	842.709276905860	526.062206698476	339.689506246454	830.370913685192	456.666797626501	330.409546898935	772.208115874107	323.843383520693	278.842990984946	866.185886639690	230.317837911280	331.462748234761	666.772238162502	393.956002182880	572.246485178811	585.006038619862	300.110443265540	636.791195411280	609.125374345366	201.944902856536	569.917324315613	452.644441337035	46.063785048056	546.270750327080	627.804611557876	96.790850510145	573.275880266303	539.963291583128	36.957889946323	615.167459001365	747.420749702286	38.350773390035	593.765363229380	791.397596103787	46.279625507970	366.337778705882	867.969285052906	54.293266148066	289.026279583969	934.420661062217	134.806338065464	310.566837479775	1070.164538105464	110.548129648337	291.091625310943	538.460455202500	1134.812370731598	220.361479439695	626.464506148827	887.274805992763	193.020168006536	791.407879489996	1069.553285257147	785.111341650322	1018.665028225842	961.072613836662	731.832073640145	
21	11.005714285714	695.842868696921	966.142970924056	341.650662736536	501.683302212601	1004.899880844370	523.113719896971	664.963492577796	1448.663130409351	363.316789962497	783.103973253532	1357.392820314079	502.044099947765	724.134577777294	1414.757281831096	692.070917269953	690.184861969675	1492.608671340172	517.885715755284	736.982704593784	934.378444067010	613.593834398431	745.414933212765	727.464531494582	578.395125769703	654.130639227714	627.376783559811	644.533625806996	715.101484535931	566.526201270515	559.849031172196	700.831862398874	477.564063783140	564.392433467610	770.443579144613	777.173532341009	358.256692742279	712.217207226122	649.218957418143	287.411993268385	816.555786803362	587.277878082888	342.300843745474	843.311850801569	524.449945202461	339.746651080336	830.284575483725	454.434934543294	330.807773703891	770.391133473308	322.323126583699	279.719267903223	862.810456075802	227.735007251212	332.953943547767	661.675097801725	392.972438250725	571.162437953721	579.643084110940	299.680199611164	636.143397935927	602.909256606152	201.322174472094	569.305280098153	445.865888165622	45.708894734583	546.194496846326	620.904461974189	96.640951853637	573.107355290291	533.148914362596	36.801977267032	615.131935525425	740.584498562526	38.424325610191	593.761409719787	785.162897032004	45.583578163432	368.114630726159	862.121614485719	51.941890941584	291.079119234476	930.069121980118	130.927935050633	312.798798283138	1065.298047163739	103.831583208195	293.869089871678	537.577526330129	1133.148716015126	218.102609073339	625.038112838479	885.393572752312	190.698175389185	786.690745616823	1068.771097432293	783.981834775584	1012.094838676142	955.506884460756	732.187439599342	
22	11.019000000000	696.309982628785	964.676410180944	339.811891425599	501.730689731328	1003.451931851111	520.865051593616	663.477522653291	1447.227714828073	360.242899664427	781.748610054715	1356.748924860930	499.398046160455	722.250114616968	1414.346881496029	689.209549115779	688.312832300782	1491.608513423864	514.788467254264	736.916999050250	933.453647437226	611.910589072460	743.814405492025	725.986802930093	577.091576082681	651.343690162130	626.650332979521	643.308875402403	711.583062038711	565.120235710974	558.723987664175	696.363242221337	476.287974368506	563.050532447295	771.487155451695	775.973510941135	357.462240649806	713.459562636752	647.612679529612	286.952745079990	817.546719033028	586.048216620367	342.194785125459	843.739275167215	522.335343619873	339.999893051241	829.850748203401	451.642953344953	331.327558473463	767.690787994297	320.442683139247	280.741671565146	858.197243547889	224.452767892593	334.626672321221	656.752081977490	391.918360429024	570.074251624618	574.389018826492	299.220641563939	635.469377916151	596.744923579503	200.658046374944	568.696348110809	439.086599691910	45.376153382712	546.121491376865	613.991844081960	96.497553952392	572.948103185263	526.322163986097	36.653982696631	615.102459583834	733.723203308896	38.482815528254	593.769716862373	777.058401325444	44.436028734612	369.974036680923	854.353275823972	49.117650604987	293.146239580204	924.023027701352	126.294819853591	315.252658650940	1058.657501473013	96.024663896605	296.654329979264	536.838341807698	1131.206011698035	215.610632282969	624.062673948982	883.337707049198	188.297427780127	781.601569910860	1068.051989779540	782.835514323833	1004.855943827790	949.483383744649	732.833126195140	
23	11.032285714286	697.104663387787	963.060823037670	337.960661853732	502.002247036771	1001.876815248398	518.469941642029	662.019100230537	1445.618635114709	356.850217308425	780.425369548036	1356.106678956983	496.532593521778	720.254767866042	1413.988479628816	686.071431314041	686.356132079431	1490.547983332790	511.341478049231	737.071603473393	932.461505856976	610.196148349918	742.577810423595	724.415695048098	575.893772460901	648.824755399384	625.844692474516	642.036687122240	708.411207639546	563.636159936177	557.597105082301	692.206228432971	474.881581799179	561.640436332238	772.728281066156	774.422744920751	356.776406369513	714.686556308597	645.805025777451	286.569990951533	818.514848770581	584.552895787995	342.230290578030	843.934359553375	519.807289216224	340.443797372385	829.089233660132	448.433751869305	331.928210660256	764.328370003255	318.293901488644	281.815859866215	852.671464649095	220.696223631282	336.386938206884	652.071026285730	390.785004208816	568.935959987627	569.301454907832	298.737488953491	634.739511043486	590.666806264576	199.954156371611	568.061884522779	432.319818706940	45.082997952059	546.045005403734	607.079937275903	96.368768997624	572.785047263547	519.498715668787	36.530842950496	615.071913008737	726.854658739127	38.517575140173	593.793277304500	767.632536832942	42.993865583703	371.797756006085	845.209188412583	46.061765560058	295.115019247859	916.711626723910	121.227402505154	317.820692582953	1050.700322315573	87.618626473797	299.363543180637	536.281296679212	1128.982084496478	212.886330714921	623.521804803071	881.083782025044	185.813858491548	776.160703817405	1067.419951736926	781.633835073277	996.913958694009	943.033830966597	733.725517738873	
